Rokkitt-700.ufo
<glyph name="A" format="1">
  <advance width="1381"/>
  <unicode hex="0041"/>
  <outline>
    <contour>
      <point x="44" y="0" type="line"/>
      <point x="544" y="0" type="line"/>
      <point x="544" y="141" type="line"/>
      <point x="385" y="141" type="line"/>
      <point x="479" y="426" type="line"/>
      <point x="876" y="426" type="line"/>
      <point x="973" y="141" type="line"/>
      <point x="817" y="141" type="line"/>
      <point x="817" y="0" type="line"/>
      <point x="1337" y="0" type="line"/>
      <point x="1337" y="141" type="line"/>
      <point x="1204" y="141" type="line"/>
      <point x="886" y="1012" type="line"/>
      <point x="1010" y="1012" type="line"/>
      <point x="1010" y="1152" type="line"/>
      <point x="369" y="1152" type="line"/>
      <point x="369" y="1012" type="line"/>
      <point x="491" y="1012" type="line"/>
      <point x="185" y="141" type="line"/>
      <point x="44" y="141" type="line"/>
    </contour>
    <contour>
      <point x="521" y="567" type="line"/>
      <point x="671" y="1012" type="line"/>
      <point x="688" y="1012" type="line"/>
      <point x="835" y="567" type="line"/>
    </contour>
    <contour>
      <point x="1101" y="0" type="move" name="ogonek"/>
    </contour>
    <contour>
      <point x="692" y="1152" type="move" name="top"/>
    </contour>
  </outline>
</glyph>
<glyph name="Q" format="1">
  <advance width="1450"/>
  <unicode hex="0051"/>
  <outline>
    <contour>
      <point x="1230" y="-293" type="curve"/>
      <point x="1229" y="-147" type="line"/>
      <point x="1091" y="-147"/>
      <point x="899" y="-68"/>
      <point x="816" y="53" type="curve"/>
      <point x="602" y="57" type="line"/>
      <point x="774" y="-194"/>
      <point x="1071" y="-293"/>
    </contour>
    <component base="O"/>
  </outline>
</glyph>
<glyph name="W" format="1">
  <advance width="1858"/>
  <unicode hex="0057"/>
  <outline>
    <contour>
      <point x="485" y="0" type="line"/>
      <point x="666" y="0" type="line"/>
      <point x="932" y="816" type="line"/>
      <point x="1202" y="0" type="line"/>
      <point x="1386" y="0" type="line"/>
      <point x="1678" y="1012" type="line"/>
      <point x="1821" y="1012" type="line"/>
      <point x="1821" y="1152" type="line"/>
      <point x="1359" y="1152" type="line"/>
      <point x="1359" y="1012" type="line"/>
      <point x="1503" y="1012" type="line"/>
      <point x="1306" y="282" type="line"/>
      <point x="1024" y="1152" type="line"/>
      <point x="867" y="1152" type="line"/>
      <point x="590" y="282" type="line"/>
      <point x="388" y="1012" type="line"/>
      <point x="531" y="1012" type="line"/>
      <point x="531" y="1152" type="line"/>
      <point x="37" y="1152" type="line"/>
      <point x="37" y="1012" type="line"/>
      <point x="182" y="1012" type="line"/>
    </contour>
    <contour>
      <point x="949" y="1152" type="move" name="top"/>
    </contour>
  </outline>
</glyph>
<glyph name="Y" format="1">
  <advance width="1313"/>
  <unicode hex="0059"/>
  <outline>
    <contour>
      <point x="385" y="0" type="line"/>
      <point x="941" y="0" type="line"/>
      <point x="941" y="141" type="line"/>
      <point x="770" y="141" type="line"/>
      <point x="770" y="510" type="line"/>
      <point x="1118" y="1012" type="line"/>
      <point x="1277" y="1012" type="line"/>
      <point x="1277" y="1152" type="line"/>
      <point x="783" y="1152" type="line"/>
      <point x="783" y="1012" type="line"/>
      <point x="925" y="1012" type="line"/>
      <point x="682" y="646" type="line"/>
      <point x="424" y="1012" type="line"/>
      <point x="567" y="1012" type="line"/>
      <point x="567" y="1152" type="line"/>
      <point x="36" y="1152" type="line"/>
      <point x="36" y="1012" type="line"/>
      <point x="188" y="1012" type="line"/>
      <point x="552" y="509" type="line"/>
      <point x="552" y="141" type="line"/>
      <point x="385" y="141" type="line"/>
    </contour>
    <contour>
      <point x="672" y="1152" type="move" name="top"/>
    </contour>
  </outline>
</glyph>
<glyph name="a" format="1">
  <advance width="927"/>
  <unicode hex="0061"/>
  <outline>
    <contour>
      <point x="338" y="-22" type="curve" smooth="yes"/>
      <point x="455" y="-22"/>
      <point x="527" y="8"/>
      <point x="596" y="67" type="curve"/>
      <point x="605" y="0" type="line"/>
      <point x="910" y="0" type="line"/>
      <point x="910" y="140" type="line"/>
      <point x="783" y="140" type="line"/>
      <point x="783" y="534" type="line" smooth="yes"/>
      <point x="783" y="732"/>
      <point x="625" y="826"/>
      <point x="427" y="826" type="curve" smooth="yes"/>
      <point x="317" y="826"/>
      <point x="173" y="793"/>
      <point x="85" y="726" type="curve"/>
      <point x="145" y="601" type="line"/>
      <point x="233" y="655"/>
      <point x="353" y="679"/>
      <point x="418" y="679" type="curve" smooth="yes"/>
      <point x="523" y="679"/>
      <point x="587" y="627"/>
      <point x="587" y="522" type="curve" smooth="yes"/>
      <point x="587" y="456" type="line"/>
      <point x="521" y="469"/>
      <point x="462" y="477"/>
      <point x="401" y="477" type="curve" smooth="yes"/>
      <point x="211" y="477"/>
      <point x="56" y="404"/>
      <point x="56" y="217" type="curve" smooth="yes"/>
      <point x="56" y="87"/>
      <point x="166" y="-22"/>
    </contour>
    <contour>
      <point x="368" y="110" type="curve" smooth="yes"/>
      <point x="292" y="110"/>
      <point x="245" y="159"/>
      <point x="245" y="229" type="curve" smooth="yes"/>
      <point x="245" y="336"/>
      <point x="331" y="361"/>
      <point x="415" y="361" type="curve" smooth="yes"/>
      <point x="498" y="361"/>
      <point x="552" y="350"/>
      <point x="587" y="340" type="curve"/>
      <point x="587" y="193" type="line"/>
      <point x="524" y="140"/>
      <point x="444" y="110"/>
    </contour>
    <contour>
      <point x="717" y="0" type="move" name="ogonek"/>
    </contour>
    <contour>
      <point x="432" y="804" type="move" name="top"/>
    </contour>
  </outline>
</glyph>
<glyph name="l" format="1">
  <advance width="553"/>
  <unicode hex="006C"/>
  <outline>
    <component base="lc_ascender_stem" xOffset="-62"/>
    <contour>
      <point x="278" y="0" type="move" name="bot"/>
    </contour>
    <contour>
      <point x="611" y="652" type="move" name="mid"/>
    </contour>
    <contour>
      <point x="287" y="1152" type="move" name="top"/>
    </contour>
  </outline>
</glyph>
<glyph name="n" format="1">
  <advance width="1075"/>
  <unicode hex="006E"/>
  <outline>
    <component base="lc_xheight_curved_stem" xOffset="-98"/>
    <component base="lc_xheight_stem" xOffset="-84"/>
    <contour>
      <point x="582" y="0" type="move" name="bot"/>
    </contour>
    <contour>
      <point x="588" y="804" type="move" name="top"/>
    </contour>
  </outline>
</glyph>
<glyph name="r" format="1">
  <advance width="797"/>
  <unicode hex="0072"/>
  <outline>
    <contour>
      <point x="391" y="419" type="line"/>
      <point x="391" y="559"/>
      <point x="473" y="637"/>
      <point x="574" y="637" type="curve" smooth="yes"/>
      <point x="621" y="637"/>
      <point x="671" y="621"/>
      <point x="720" y="587" type="curve"/>
      <point x="768" y="768" type="line"/>
      <point x="709" y="794"/>
      <point x="650" y="812"/>
      <point x="595" y="812" type="curve" smooth="yes"/>
      <point x="489" y="812"/>
      <point x="398" y="745"/>
      <point x="350" y="539" type="curve"/>
    </contour>
    <component base="lc_xheight_stem" xOffset="-84"/>
    <contour>
      <point x="291" y="0" type="move" name="bot"/>
    </contour>
    <contour>
      <point x="445" y="804" type="move" name="top"/>
    </contour>
  </outline>
</glyph>
<glyph name="exclamdown" format="1">
  <advance width="534"/>
  <unicode hex="00A1"/>
  <outline>
    <contour>
      <point x="172" y="7" type="line"/>
      <point x="375" y="7" type="line"/>
      <point x="375" y="323" type="line"/>
      <point x="330" y="820" type="line"/>
      <point x="221" y="820" type="line"/>
      <point x="172" y="323" type="line"/>
    </contour>
    <contour>
      <point x="151" y="987" type="line"/>
      <point x="395" y="987" type="line"/>
      <point x="375" y="1229" type="line"/>
      <point x="151" y="1229" type="line"/>
    </contour>
  </outline>
</glyph>
<glyph name="onehalf" format="1">
  <advance width="2124.690"/>
  <unicode hex="00BD"/>
  <outline>
    <contour>
      <point x="1374" y="0" type="line"/>
      <point x="1958" y="0" type="line"/>
      <point x="1956" y="258" type="line"/>
      <point x="1848" y="258" type="line"/>
      <point x="1848" y="100" type="line"/>
      <point x="1537" y="100" type="line"/>
      <point x="1723" y="276" type="line" smooth="yes"/>
      <point x="1818" y="365"/>
      <point x="1936" y="470"/>
      <point x="1936" y="591" type="curve" smooth="yes"/>
      <point x="1936" y="738"/>
      <point x="1840" y="834"/>
      <point x="1661" y="834" type="curve" smooth="yes"/>
      <point x="1473" y="834"/>
      <point x="1361" y="726"/>
      <point x="1361" y="580" type="curve" smooth="yes"/>
      <point x="1361" y="547"/>
      <point x="1366" y="513"/>
      <point x="1378" y="478" type="curve"/>
      <point x="1500" y="478" type="line"/>
      <point x="1493" y="508"/>
      <point x="1489" y="537"/>
      <point x="1489" y="562" type="curve" smooth="yes"/>
      <point x="1489" y="667"/>
      <point x="1551" y="728"/>
      <point x="1662" y="728" type="curve" smooth="yes"/>
      <point x="1768" y="728"/>
      <point x="1799" y="661"/>
      <point x="1802" y="589" type="curve" smooth="yes"/>
      <point x="1806" y="518"/>
      <point x="1713" y="433"/>
      <point x="1635" y="357" type="curve" smooth="yes"/>
      <point x="1374" y="104" type="line"/>
    </contour>
    <contour>
      <point x="231" y="334" type="line"/>
      <point x="608" y="334" type="line"/>
      <point x="608" y="434" type="line"/>
      <point x="493" y="434" type="line"/>
      <point x="493" y="1152" type="line"/>
      <point x="222" y="1116" type="line"/>
      <point x="222" y="1017" type="line"/>
      <point x="353" y="1031" type="line"/>
      <point x="353" y="434" type="line"/>
      <point x="231" y="434" type="line"/>
    </contour>
    <contour>
      <point x="573" y="-50" type="line"/>
      <point x="704" y="-50" type="line"/>
      <point x="1528" y="1252" type="line"/>
      <point x="1400" y="1252" type="line"/>
    </contour>
  </outline>
</glyph>
<glyph name="threequarters" format="1">
  <advance width="2224"/>
  <unicode hex="00BE"/>
  <outline>
    <contour>
      <point x="492" y="324" type="curve" smooth="yes"/>
      <point x="683" y="324"/>
      <point x="803" y="426"/>
      <point x="803" y="584" type="curve" smooth="yes"/>
      <point x="803" y="687"/>
      <point x="733" y="746"/>
      <point x="623" y="773" type="curve"/>
      <point x="713" y="799"/>
      <point x="769" y="867"/>
      <point x="769" y="956" type="curve" smooth="yes"/>
      <point x="769" y="1084"/>
      <point x="654" y="1174"/>
      <point x="483" y="1174" type="curve" smooth="yes"/>
      <point x="342" y="1174"/>
      <point x="230" y="1108"/>
      <point x="181" y="1006" type="curve"/>
      <point x="294" y="952" type="line"/>
      <point x="319" y="1021"/>
      <point x="386" y="1064"/>
      <point x="480" y="1064" type="curve" smooth="yes"/>
      <point x="568" y="1064"/>
      <point x="630" y="1017"/>
      <point x="630" y="955" type="curve" smooth="yes"/>
      <point x="630" y="870"/>
      <point x="582" y="821"/>
      <point x="413" y="821" type="curve"/>
      <point x="413" y="712" type="line"/>
      <point x="584" y="712"/>
      <point x="652" y="675"/>
      <point x="657" y="581" type="curve" smooth="yes"/>
      <point x="662" y="491"/>
      <point x="594" y="434"/>
      <point x="493" y="434" type="curve" smooth="yes"/>
      <point x="396" y="434"/>
      <point x="329" y="480"/>
      <point x="297" y="562" type="curve"/>
      <point x="185" y="501" type="line"/>
      <point x="219" y="394"/>
      <point x="338" y="324"/>
    </contour>
    <contour>
      <point x="1576" y="0" type="line"/>
      <point x="1911" y="0" type="line"/>
      <point x="1911" y="100" type="line"/>
      <point x="1815" y="100" type="line"/>
      <point x="1815" y="237" type="line"/>
      <point x="1940" y="237" type="line"/>
      <point x="1940" y="334" type="line"/>
      <point x="1815" y="334" type="line"/>
      <point x="1815" y="818" type="line"/>
      <point x="1689" y="818" type="line"/>
      <point x="1338" y="354" type="line"/>
      <point x="1352" y="237" type="line"/>
      <point x="1686" y="237" type="line"/>
      <point x="1686" y="100" type="line"/>
      <point x="1576" y="100" type="line"/>
    </contour>
    <contour>
      <point x="676" y="-50" type="line"/>
      <point x="807" y="-50" type="line"/>
      <point x="1631" y="1252" type="line"/>
      <point x="1503" y="1252" type="line"/>
    </contour>
    <contour>
      <point x="1451" y="334" type="line"/>
      <point x="1686" y="649" type="line"/>
      <point x="1686" y="334" type="line"/>
    </contour>
  </outline>
</glyph>
<glyph name="Lslash" format="1">
  <advance width="1189"/>
  <unicode hex="0141"/>
  <outline>
    <contour>
      <point x="127" y="397" type="line"/>
      <point x="683" y="690" type="line"/>
      <point x="683" y="826" type="line"/>
      <point x="127" y="526" type="line"/>
    </contour>
    <component base="L"/>
  </outline>
</glyph>
<glyph name="Eng" format="1">
  <advance width="1441"/>
  <unicode hex="014A"/>
  <outline>
    <contour>
      <point x="775" y="-386" type="line"/>
      <point x="1015" y="-386"/>
      <point x="1223" y="-302"/>
      <point x="1223" y="-31" type="curve" smooth="yes"/>
      <point x="1223" y="160" type="line"/>
      <point x="1059" y="160" type="line"/>
      <point x="1060" y="-40" type="line" smooth="yes"/>
      <point x="1061" y="-191"/>
      <point x="954" y="-244"/>
      <point x="775" y="-244" type="curve"/>
    </contour>
    <component base="N"/>
  </outline>
</glyph>
<glyph name="apostrophemod" format="1">
  <advance width="600"/>
  <unicode hex="02BC"/>
  <outline>
    <component base="commaaccent" yOffset="1429"/>
    <contour>
      <point x="147" y="804" type="move" name="_top"/>
    </contour>
  </outline>
</glyph>
<glyph name="uni030F" format="1">
  <advance width="677"/>
  <unicode hex="030F"/>
  <outline>
    <contour>
      <point x="195" y="895" type="line"/>
      <point x="354" y="895" type="line"/>
      <point x="233" y="1206" type="line"/>
      <point x="-19" y="1206" type="line"/>
    </contour>
    <contour>
      <point x="516" y="895" type="line"/>
      <point x="674" y="895" type="line"/>
      <point x="553" y="1206" type="line"/>
      <point x="301" y="1206" type="line"/>
    </contour>
    <contour>
      <point x="449" y="804" type="move" name="_top"/>
    </contour>
  </outline>
</glyph>
<glyph name="commaturnedabovecomb" format="1">
  <advance width="600"/>
  <unicode hex="0312"/>
  <outline>
    <contour>
      <point x="85" y="901" type="line"/>
      <point x="329" y="901" type="line"/>
      <point x="329" y="1120" type="line"/>
      <point x="191" y="1120" type="line"/>
      <point x="191" y="1197"/>
      <point x="242" y="1229"/>
      <point x="329" y="1247" type="curve"/>
      <point x="329" y="1334" type="line"/>
      <point x="170" y="1334"/>
      <point x="84" y="1259"/>
      <point x="85" y="1120" type="curve"/>
    </contour>
    <contour>
      <point x="147" y="804" type="move" name="_top"/>
    </contour>
  </outline>
</glyph>
<glyph name="uni0326" format="1">
  <advance width="496"/>
  <unicode hex="0326"/>
  <outline>
    <contour>
      <point x="130" y="-643" type="line"/>
      <point x="326" y="-641"/>
      <point x="387" y="-543"/>
      <point x="387" y="-351" type="curve"/>
      <point x="380" y="-130" type="line"/>
      <point x="134" y="-130" type="line"/>
      <point x="134" y="-371" type="line"/>
      <point x="262" y="-371" type="line"/>
      <point x="262" y="-481"/>
      <point x="226" y="-522"/>
      <point x="130" y="-541" type="curve"/>
    </contour>
    <contour>
      <point x="255" y="0" type="move" name="_bot"/>
    </contour>
  </outline>
</glyph>
<glyph name="foursuperior" format="1">
  <advance width="944"/>
  <unicode hex="2074"/>
  <outline>
    <contour>
      <point x="430" y="456" type="line"/>
      <point x="787" y="456" type="line"/>
      <point x="787" y="563" type="line"/>
      <point x="692" y="563" type="line"/>
      <point x="692" y="698" type="line"/>
      <point x="816" y="698" type="line"/>
      <point x="816" y="801" type="line"/>
      <point x="692" y="801" type="line"/>
      <point x="692" y="1321" type="line"/>
      <point x="537" y="1321" type="line"/>
      <point x="192" y="819" type="line"/>
      <point x="192" y="698" type="line"/>
      <point x="548" y="698" type="line"/>
      <point x="548" y="563" type="line"/>
      <point x="430" y="563" type="line"/>
    </contour>
    <contour>
      <point x="315" y="801" type="line"/>
      <point x="548" y="1145" type="line"/>
      <point x="548" y="801" type="line"/>
    </contour>
  </outline>
</glyph>
<glyph name="Euro" format="1">
  <advance width="1440"/>
  <unicode hex="20AC"/>
  <outline>
    <contour>
      <point x="721" y="-22" type="curve" smooth="yes"/>
      <point x="961" y="-20"/>
      <point x="1182" y="63.9998"/>
      <point x="1269" y="340" type="curve"/>
      <point x="1106" y="417" type="line"/>
      <point x="1056" y="218"/>
      <point x="904" y="138"/>
      <point x="736" y="138" type="curve" smooth="yes"/>
      <point x="551" y="138"/>
      <point x="420" y="241"/>
      <point x="364" y="395" type="curve"/>
      <point x="622" y="395" type="line"/>
      <point x="662" y="516" type="line"/>
      <point x="336" y="516" type="line"/>
      <point x="334" y="537"/>
      <point x="333" y="558"/>
      <point x="333" y="579" type="curve" smooth="yes"/>
      <point x="333" y="598"/>
      <point x="334" y="616"/>
      <point x="336" y="634" type="curve"/>
      <point x="622" y="634" type="line"/>
      <point x="662" y="755" type="line"/>
      <point x="363" y="755" type="line"/>
      <point x="420" y="913"/>
      <point x="557" y="1014"/>
      <point x="737" y="1014" type="curve" smooth="yes"/>
      <point x="883" y="1014"/>
      <point x="1012" y="954"/>
      <point x="1087" y="791" type="curve"/>
      <point x="1234" y="791" type="line"/>
      <point x="1234" y="1155" type="line"/>
      <point x="1078" y="1155" type="line"/>
      <point x="1078" y="1035" type="line"/>
      <point x="990" y="1119"/>
      <point x="870" y="1174"/>
      <point x="722" y="1174" type="curve" smooth="yes"/>
      <point x="416" y="1174"/>
      <point x="202" y="1009"/>
      <point x="134" y="755" type="curve"/>
      <point x="35" y="755" type="line"/>
      <point x="-5" y="634" type="line"/>
      <point x="114" y="634" type="line"/>
      <point x="113" y="615"/>
      <point x="112" y="596"/>
      <point x="112" y="576" type="curve" smooth="yes"/>
      <point x="112" y="556"/>
      <point x="113" y="536"/>
      <point x="114" y="516" type="curve"/>
      <point x="35" y="516" type="line"/>
      <point x="-5" y="395" type="line"/>
      <point x="136" y="395" type="line"/>
      <point x="201" y="157"/>
      <point x="399" y="-20"/>
    </contour>
  </outline>
</glyph>
<glyph name="trademark" format="1">
  <advance width="1830"/>
  <unicode hex="2122"/>
  <outline>
    <contour>
      <point x="798" y="486" type="line"/>
      <point x="1061" y="486" type="line"/>
      <point x="1061" y="583" type="line"/>
      <point x="981" y="583" type="line"/>
      <point x="981" y="1015" type="line"/>
      <point x="1200" y="486" type="line"/>
      <point x="1250" y="486" type="line"/>
      <point x="1463" y="1016" type="line"/>
      <point x="1463" y="583" type="line"/>
      <point x="1384" y="583" type="line"/>
      <point x="1384" y="486" type="line"/>
      <point x="1671" y="486" type="line"/>
      <point x="1671" y="583" type="line"/>
      <point x="1586" y="583" type="line"/>
      <point x="1586" y="1055" type="line"/>
      <point x="1671" y="1055" type="line"/>
      <point x="1671" y="1152" type="line"/>
      <point x="1402" y="1152" type="line"/>
      <point x="1227" y="700" type="line"/>
      <point x="1056" y="1152" type="line"/>
      <point x="798" y="1152" type="line"/>
      <point x="798" y="1055" type="line"/>
      <point x="883" y="1055" type="line"/>
      <point x="883" y="583" type="line"/>
      <point x="798" y="583" type="line"/>
    </contour>
    <contour>
      <point x="282" y="486" type="line"/>
      <point x="604" y="486" type="line"/>
      <point x="604" y="583" type="line"/>
      <point x="509" y="583" type="line"/>
      <point x="509" y="1055" type="line"/>
      <point x="631" y="1055" type="line"/>
      <point x="631" y="892" type="line"/>
      <point x="730" y="892" type="line"/>
      <point x="730" y="1152" type="line"/>
      <point x="155" y="1152" type="line"/>
      <point x="155" y="892" type="line"/>
      <point x="254" y="892" type="line"/>
      <point x="254" y="1055" type="line"/>
      <point x="379" y="1055" type="line"/>
      <point x="379" y="583" type="line"/>
      <point x="282" y="583" type="line"/>
    </contour>
  </outline>
</glyph>
<glyph name="estimated" format="1">
  <advance width="1119"/>
  <unicode hex="212E"/>
  <outline>
    <contour>
      <point x="976" y="129" type="curve"/>
      <point x="951" y="160" type="line"/>
      <point x="624" y="-88"/>
      <point x="367" y="68"/>
      <point x="341" y="401" type="curve"/>
      <point x="967" y="401" type="line"/>
      <point x="967" y="673"/>
      <point x="862" y="866"/>
      <point x="580" y="866" type="curve" smooth="yes"/>
      <point x="312" y="866"/>
      <point x="134" y="680"/>
      <point x="134" y="420" type="curve" smooth="yes"/>
      <point x="134" y="-33"/>
      <point x="674" y="-151"/>
    </contour>
    <contour>
      <point x="344" y="461" type="line"/>
      <point x="352" y="936"/>
      <point x="856" y="964"/>
      <point x="856" y="461" type="curve"/>
    </contour>
  </outline>
</glyph>
<glyph name="product" format="1">
  <advance width="1477"/>
  <unicode hex="220F"/>
  <outline>
    <contour>
      <point x="120" y="0" type="line"/>
      <point x="647" y="0" type="line"/>
      <point x="647" y="141" type="line"/>
      <point x="493" y="141" type="line"/>
      <point x="493" y="1012" type="line"/>
      <point x="984" y="1012" type="line"/>
      <point x="984" y="141" type="line"/>
      <point x="830" y="141" type="line"/>
      <point x="830" y="0" type="line"/>
      <point x="1357" y="0" type="line"/>
      <point x="1357" y="141" type="line"/>
      <point x="1203" y="141" type="line"/>
      <point x="1203" y="1012" type="line"/>
      <point x="1357" y="1012" type="line"/>
      <point x="1357" y="1152" type="line"/>
      <point x="120" y="1152" type="line"/>
      <point x="120" y="1012" type="line"/>
      <point x="274" y="1012" type="line"/>
      <point x="274" y="141" type="line"/>
      <point x="120" y="141" type="line"/>
    </contour>
  </outline>
</glyph>
<glyph name="notequal" format="1">
  <advance width="1145"/>
  <unicode hex="2260"/>
  <outline>
    <contour>
      <point x="375" y="0" type="line"/>
      <point x="520" y="0" type="line"/>
      <point x="573" y="211" type="line"/>
      <point x="1016" y="211" type="line"/>
      <point x="1016" y="354" type="line"/>
      <point x="610" y="354" type="line"/>
      <point x="676" y="608" type="line"/>
      <point x="1016" y="608" type="line"/>
      <point x="1016" y="751" type="line"/>
      <point x="713" y="751" type="line"/>
      <point x="768" y="962" type="line"/>
      <point x="625" y="962" type="line"/>
      <point x="569" y="751" type="line"/>
      <point x="129" y="751" type="line"/>
      <point x="129" y="608" type="line"/>
      <point x="532" y="608" type="line"/>
      <point x="465" y="354" type="line"/>
      <point x="129" y="354" type="line"/>
      <point x="129" y="211" type="line"/>
      <point x="428" y="211" type="line"/>
    </contour>
  </outline>
</glyph>
<glyph name="lc_bowl_right" format="1">
  <advance width="1259"/>
  <outline>
    <contour>
      <point x="634" y="-21" type="curve" smooth="yes"/>
      <point x="838" y="-21"/>
      <point x="1045" y="133"/>
      <point x="1045" y="415" type="curve" smooth="yes"/>
      <point x="1045" y="685"/>
      <point x="863" y="825"/>
      <point x="663" y="825" type="curve" smooth="yes"/>
      <point x="539" y="825"/>
      <point x="408" y="771"/>
      <point x="310" y="661" type="curve"/>
      <point x="330" y="522" type="line"/>
      <point x="411" y="625"/>
      <point x="513" y="674"/>
      <point x="604" y="674" type="curve" smooth="yes"/>
      <point x="732" y="674"/>
      <point x="838" y="579"/>
      <point x="838" y="402" type="curve" smooth="yes"/>
      <point x="838" y="215"/>
      <point x="725" y="126"/>
      <point x="596" y="126" type="curve" smooth="yes"/>
      <point x="504" y="126"/>
      <point x="402" y="172"/>
      <point x="328" y="262" type="curve"/>
      <point x="316" y="146" type="line"/>
      <point x="392" y="33"/>
      <point x="513" y="-21"/>
    </contour>
  </outline>
</glyph>
<glyph name="lc_xheight_curved_stem" format="1">
  <advance width="1236"/>
  <outline>
    <contour>
      <point x="718" y="0" type="line"/>
      <point x="1173" y="0" type="line"/>
      <point x="1173" y="140" type="line"/>
      <point x="1028" y="140" type="line"/>
      <point x="1028" y="546" type="line" smooth="yes"/>
      <point x="1028" y="730"/>
      <point x="899" y="826"/>
      <point x="755" y="826" type="curve" smooth="yes"/>
      <point x="616" y="826"/>
      <point x="494" y="742"/>
      <point x="385" y="648" type="curve"/>
      <point x="385" y="508" type="line"/>
      <point x="453" y="587"/>
      <point x="579" y="671"/>
      <point x="701" y="671" type="curve" smooth="yes"/>
      <point x="783" y="671"/>
      <point x="832" y="609"/>
      <point x="832" y="495" type="curve" smooth="yes"/>
      <point x="832" y="140" type="line"/>
      <point x="718" y="140" type="line"/>
    </contour>
  </outline>
</glyph>
